# xmcd
#
# Track frame offsets:
#	150
#	10181
#	21631
#	35619
#	51165
#	65295
#	82637
#	93816
#	108976
#	129679
#	152363
#	168212
#	181163
#	197816
#	210622
#	231014
#	245510
#	263287
#
# Disc length: 3729 seconds
#
# Revision: 1
# Processed by: cddbd v1.5.2PL0 Copyright (c) Steve Scherf et al.
# Submitted via: EasyCDDAExtractor 11.5.0.1
#
DISCID=d90e8f12
DTITLE=Tchê Barbaridade - Tchê Mania (Ao Vivo)
DYEAR=2008
DGENRE=Gaúcha
TTITLE0=Abertura (Hino Nacional)
TTITLE1=Bate Coração
TTITLE2=Mania De Dançar
TTITLE3=Canalha Eu Sou
TTITLE4=Risca Faca
TTITLE5=Liguei Pra Dizer Que Te Amo
TTITLE6=Rebola Bumbum
TTITLE7=I Love You Baby
TTITLE8=Você Não Vale Nada
TTITLE9=Loco, Loco, Loco
TTITLE10=Vou Te Buscar
TTITLE11=Maria Dançadeira
TTITLE12=A Lua E A Noite
TTITLE13=Games People Play
TTITLE14=Choram As Rosas
TTITLE15=Agora É Tarde
TTITLE16=Não Vai Me Dominar
TTITLE17=Vá Se Danar
EXTD=
EXTT0=
EXTT1=
EXTT2=
EXTT3=
EXTT4=
EXTT5=
EXTT6=
EXTT7=
EXTT8=
EXTT9=
EXTT10=
EXTT11=
EXTT12=
EXTT13=
EXTT14=
EXTT15=
EXTT16=
EXTT17=
PLAYORDER=
